<svg width="1200" height="360" viewBox="0 0 1200 360" fill="none" xmlns="http://www.w3.org/2000/svg" role="img" aria-labelledby="title desc">
  <title id="title">wajipu profile cover</title>
  <desc id="desc">A clean profile banner for wajipu, focused on backend services, Swift, Flutter, native integrations, and automation.</desc>
  <rect width="1200" height="360" rx="28" fill="#0B1220"/>
  <path d="M0 285H1200V360H0V285Z" fill="#111827"/>
  <path d="M0 0H1200V92H0V0Z" fill="#0F766E" fill-opacity="0.18"/>
  <path d="M80 92H1120" stroke="#334155" stroke-width="1"/>
  <path d="M80 285H1120" stroke="#334155" stroke-width="1"/>
  <path d="M80 92V285" stroke="#1F2937" stroke-width="1"/>
  <path d="M1120 92V285" stroke="#1F2937" stroke-width="1"/>
  <rect x="80" y="92" width="1040" height="193" rx="18" fill="#0F172A" stroke="#334155"/>
  <rect x="112" y="124" width="8" height="112" rx="4" fill="#14B8A6"/>
  <text x="144" y="168" fill="#F8FAFC" font-family="-apple-system, BlinkMacSystemFont, 'Segoe UI', sans-serif" font-size="54" font-weight="700" letter-spacing="0">wajipu</text>
  <text x="146" y="208" fill="#CBD5E1" font-family="-apple-system, BlinkMacSystemFont, 'Segoe UI', sans-serif" font-size="24" font-weight="500" letter-spacing="0">Backend services. Practical tools. Clean workflows.</text>
  <g transform="translate(144 238)">
    <rect width="112" height="34" rx="8" fill="#134E4A"/>
    <text x="56" y="23" text-anchor="middle" fill="#CCFBF1" font-family="-apple-system, BlinkMacSystemFont, 'Segoe UI', sans-serif" font-size="15" font-weight="600" letter-spacing="0">Swift</text>
    <rect x="124" width="112" height="34" rx="8" fill="#1E3A8A"/>
    <text x="180" y="23" text-anchor="middle" fill="#DBEAFE" font-family="-apple-system, BlinkMacSystemFont, 'Segoe UI', sans-serif" font-size="15" font-weight="600" letter-spacing="0">Flutter</text>
    <rect x="248" width="88" height="34" rx="8" fill="#7F1D1D"/>
    <text x="292" y="23" text-anchor="middle" fill="#FEE2E2" font-family="-apple-system, BlinkMacSystemFont, 'Segoe UI', sans-serif" font-size="15" font-weight="600" letter-spacing="0">Java</text>
    <rect x="348" width="88" height="34" rx="8" fill="#431407"/>
    <text x="392" y="23" text-anchor="middle" fill="#FFEDD5" font-family="-apple-system, BlinkMacSystemFont, 'Segoe UI', sans-serif" font-size="15" font-weight="600" letter-spacing="0">Rust</text>
    <rect x="448" width="78" height="34" rx="8" fill="#164E63"/>
    <text x="487" y="23" text-anchor="middle" fill="#CFFAFE" font-family="-apple-system, BlinkMacSystemFont, 'Segoe UI', sans-serif" font-size="15" font-weight="600" letter-spacing="0">Go</text>
    <rect x="538" width="132" height="34" rx="8" fill="#312E81"/>
    <text x="604" y="23" text-anchor="middle" fill="#E0E7FF" font-family="-apple-system, BlinkMacSystemFont, 'Segoe UI', sans-serif" font-size="15" font-weight="600" letter-spacing="0">Automation</text>
  </g>
  <g transform="translate(808 130)">
    <rect width="256" height="116" rx="14" fill="#111827" stroke="#334155"/>
    <path d="M32 80L76 36L114 74L146 42L224 120" stroke="#14B8A6" stroke-width="10" stroke-linecap="round" stroke-linejoin="round"/>
    <path d="M38 84H220" stroke="#64748B" stroke-width="6" stroke-linecap="round"/>
    <path d="M38 102H166" stroke="#475569" stroke-width="6" stroke-linecap="round"/>
  </g>
</svg>
